{
  "asset": {
    "version": "2.0",
    "generator": "Created using the official Cinema 4D glTF Exporter 1.000x284978"
  },
  "scenes": [
    {
      "nodes": [0]
    }
  ],
  "nodes": [
    {
      "name": "robot",
      "translation": [
        0.21378007531166078, -20.244319915771486, 17.167369842529298
      ],
      "rotation": [0.0, 0.0, 0.0, -1.0],
      "scale": [1.0, 1.0, 1.0],
      "children": [1, 2, 3]
    },
    {
      "name": "robot-Mat",
      "mesh": 0
    },
    {
      "name": "robot-Mat.1",
      "mesh": 1
    },
    {
      "name": "robot-Mat.1",
      "mesh": 2
    }
  ],
  "materials": [
    {
      "pbrMetallicRoughness": {
        "baseColorFactor": [0.5, 0.5, 0.5, 1.0],
        "metallicFactor": 0.0,
        "roughnessFactor": 0.5
      },
      "emissiveFactor": [0.95, 0.95, 0.95],
      "alphaMode": "OPAQUE",
      "doubleSided": false,
      "name": "Mat"
    },
    {
      "pbrMetallicRoughness": {
        "baseColorFactor": [0.5, 0.5, 0.5, 1.0],
        "metallicFactor": 1.0,
        "roughnessFactor": 0.75
      },
      "emissiveFactor": [0.0, 0.0, 0.0],
      "alphaMode": "OPAQUE",
      "doubleSided": false,
      "name": "Mat.1"
    }
  ],
  "meshes": [
    {
      "name": "robot-Mat",
      "primitives": [
        {
          "attributes": {
            "POSITION": 1,
            "TEXCOORD_0": 2
          },
          "material": 0,
          "indices": 0
        }
      ]
    },
    {
      "name": "robot-Mat.1",
      "primitives": [
        {
          "attributes": {
            "POSITION": 4,
            "TEXCOORD_0": 5
          },
          "material": 1,
          "indices": 3
        }
      ]
    },
    {
      "name": "robot-Mat.1",
      "primitives": [
        {
          "attributes": {
            "POSITION": 7,
            "TEXCOORD_0": 8
          },
          "material": 1,
          "indices": 6
        }
      ]
    }
  ],
  "accessors": [
    {
      "bufferView": 0,
      "min": [0],
      "type": "SCALAR",
      "componentType": 5123,
      "count": 672,
      "byteOffset": 0,
      "max": [128]
    },
    {
      "bufferView": 1,
      "min": [-62.0107536315918, -41.55265426635742, 15.218435287475586],
      "type": "VEC3",
      "componentType": 5126,
      "count": 129,
      "byteOffset": 0,
      "max": [61.58319091796875, 82.04129028320313, 21.538681030273439]
    },
    {
      "bufferView": 1,
      "min": [0.0, 0.0],
      "type": "VEC2",
      "componentType": 5126,
      "count": 129,
      "byteOffset": 12,
      "max": [0.0, 0.0]
    },
    {
      "bufferView": 2,
      "min": [0],
      "type": "SCALAR",
      "componentType": 5123,
      "count": 3168,
      "byteOffset": 0,
      "max": [544]
    },
    {
      "bufferView": 3,
      "min": [-100.21378326416016, -79.75568389892578, -117.16737365722656],
      "type": "VEC3",
      "componentType": 5126,
      "count": 545,
      "byteOffset": 0,
      "max": [99.78621673583985, 120.24431610107422, 29.706262588500978]
    },
    {
      "bufferView": 3,
      "min": [0.0, 0.0],
      "type": "VEC2",
      "componentType": 5126,
      "count": 545,
      "byteOffset": 12,
      "max": [0.0, 0.0]
    },
    {
      "bufferView": 4,
      "min": [0],
      "type": "SCALAR",
      "componentType": 5123,
      "count": 1608,
      "byteOffset": 0,
      "max": [341]
    },
    {
      "bufferView": 5,
      "min": [-136.30154418945313, -71.92613220214844, -45.493690490722659],
      "type": "VEC3",
      "componentType": 5126,
      "count": 342,
      "byteOffset": 0,
      "max": [136.30154418945313, 48.869319915771487, 24.559595108032228]
    },
    {
      "bufferView": 5,
      "min": [0.0, 0.0],
      "type": "VEC2",
      "componentType": 5126,
      "count": 342,
      "byteOffset": 12,
      "max": [1.0, 1.0]
    }
  ],
  "bufferViews": [
    {
      "buffer": 0,
      "target": 34963,
      "byteOffset": 0,
      "byteLength": 1344
    },
    {
      "buffer": 0,
      "target": 34962,
      "byteOffset": 1344,
      "byteLength": 2580,
      "byteStride": 20
    },
    {
      "buffer": 1,
      "target": 34963,
      "byteOffset": 0,
      "byteLength": 6336
    },
    {
      "buffer": 1,
      "target": 34962,
      "byteOffset": 6336,
      "byteLength": 10900,
      "byteStride": 20
    },
    {
      "buffer": 2,
      "target": 34963,
      "byteOffset": 0,
      "byteLength": 3216
    },
    {
      "buffer": 2,
      "target": 34962,
      "byteOffset": 3216,
      "byteLength": 6840,
      "byteStride": 20
    }
  ],
  "buffers": [
    {
      "uri": "data:application/octet-stream;base64,",
      "byteLength": 3924
    },
    {
      "uri": "data:application/octet-stream;base64,",
      "byteLength": 17236
    },
    {
      "uri": "data:application/octet-stream;base64,",
      "byteLength": 10056
    }
  ]
}
