<svg width="16" height="16" fill="none" xmlns="http://www.w3.org/2000/svg"><path d="M10.562 2.313C9.612 2.054 8.604 1 8 1c-.604 0-1.613 1.054-2.562 1.313-.971.262-1.95-.61-2.526-.421a1.347 1.347 0 0 0-.914 1.104c-.521 3.918.689 7.18 2.157 9.1a10.302 10.302 0 0 0 2.203 2.147c.29.208.596.391.917.547.245.116.508.21.725.21.217 0 .48-.095.725-.21.321-.156.628-.339.917-.547a10.302 10.302 0 0 0 2.203-2.146c1.468-1.92 2.678-5.183 2.157-9.1a1.348 1.348 0 0 0-.914-1.105c-.836-.274-1.678.654-2.526.42Z" fill="#2D2D2D"/></svg>