<svg width="16" height="16" viewBox="0 0 16 16" fill="none" xmlns="http://www.w3.org/2000/svg">
<path d="M10.562 2.3125C9.61259 2.05437 8.60371 0.999998 7.99996 0.999998C7.39621 0.999998 6.38734 2.05437 5.43796 2.3125C4.46671 2.575 3.48762 1.70376 2.91187 1.89189C2.67115 1.97138 2.45774 2.11717 2.29615 2.3125C2.13456 2.50783 2.03134 2.74478 1.99837 2.99614C1.47687 6.91351 2.68696 10.1761 4.15521 12.0968C4.77783 12.9184 5.52022 13.6419 6.35759 14.2431C6.64713 14.4512 6.95391 14.6341 7.27459 14.79C7.51959 14.9055 7.78296 15 7.99996 15C8.21696 15 8.47946 14.9055 8.72534 14.79C9.04601 14.6341 9.35279 14.4512 9.64234 14.2431C10.4797 13.6419 11.2221 12.9183 11.8447 12.0967C13.313 10.1761 14.5231 6.91351 14.0016 2.99614C13.9686 2.74478 13.8654 2.50783 13.7038 2.3125C13.5423 2.11717 13.3288 1.97138 13.0881 1.89189C12.2523 1.61784 11.41 2.54588 10.562 2.3125Z" fill="#2D2D2D"/>
</svg>
