<svg width="500" height="500" viewBox="0 0 500 500" fill="none" xmlns="http://www.w3.org/2000/svg">
<g clip-path="url('#clip0_410_53')">
<path fill-rule="evenodd" clip-rule="evenodd" d="M250 96C167.157 96 100 163.157 100 246C100 328.843 167.157 396 250 396C332.843 396 400 328.843 400 246C400 163.157 332.843 96 250 96ZM250 145C194.219 145 149 190.219 149 246C149 301.781 194.219 347 250 347C305.781 347 351 301.781 351 246C351 190.219 305.781 145 250 145Z" fill="#303030"></path>
<rect x="266" y="230" width="42" height="59" rx="21" fill="#303030"></rect>
<rect x="191" y="203" width="42" height="86" rx="21" fill="#303030"></rect>
<path d="M28.1049 310.478C15.3782 295.925 17.2987 273.71 32.3342 261.557V261.557C51.0537 246.426 79.1343 254.953 86.2803 277.937L113.341 364.976C115.543 372.059 112.153 379.677 105.417 382.782V382.782C99.4665 385.525 92.4204 384.023 88.1072 379.09L28.1049 310.478Z" fill="#303030"></path>
<path d="M472.325 310.478C485.051 295.925 483.131 273.71 468.095 261.557V261.557C449.376 246.426 421.295 254.953 414.149 277.937L387.089 364.976C384.886 372.059 388.277 379.677 395.013 382.782V382.782C400.963 385.525 408.009 384.023 412.322 379.09L472.325 310.478Z" fill="#303030"></path>
</g>
<defs>
<clipPath id="clip0_410_53">
<rect width="500" height="500" fill="white"></rect>
</clipPath>
</defs>
</svg>
