<svg width="500" height="500" fill="none" xmlns="http://www.w3.org/2000/svg"><g clip-path="url('#clip0_410_53')" fill="#303030"><path fill-rule="evenodd" clip-rule="evenodd" d="M250 96c-82.843 0-150 67.157-150 150s67.157 150 150 150 150-67.157 150-150S332.843 96 250 96Zm0 49c-55.781 0-101 45.219-101 101s45.219 101 101 101 101-45.219 101-101-45.219-101-101-101Z"/><rect x="266" y="230" width="42" height="59" rx="21"/><rect x="191" y="203" width="42" height="86" rx="21"/><path d="M28.105 310.478c-12.727-14.553-10.806-36.768 4.23-48.921 18.719-15.131 46.8-6.604 53.945 16.38l27.061 87.039a14.776 14.776 0 0 1-7.924 17.806 14.776 14.776 0 0 1-17.31-3.692l-60.002-68.612ZM472.325 310.478c12.726-14.553 10.806-36.768-4.23-48.921-18.719-15.131-46.8-6.604-53.946 16.38l-27.06 87.039a14.775 14.775 0 0 0 7.924 17.806 14.775 14.775 0 0 0 17.309-3.692l60.003-68.612Z"/></g><defs><clipPath id="clip0_410_53"><path fill="#fff" d="M0 0h500v500H0z"/></clipPath></defs></svg>