<?xml version="1.0" encoding="utf-8"?>
<!-- Generator: Adobe Illustrator 22.0.0, SVG Export Plug-In . SVG Version: 6.00 Build 0)  -->
<svg version="1.1" id="Layer_1" xmlns="http://www.w3.org/2000/svg" xmlns:xlink="http://www.w3.org/1999/xlink" x="0px" y="0px" viewBox="0 0 464.9 464.9" style="enable-background: new 0 0 464.9 464.9" xml:space="preserve">
<style>.st0 {
  fill: #303030;
}

</style>
<g>
	<g>
		<path class="st0" d="M232.4,78.4c-82.8,0-150,67.2-150,150s67.2,150,150,150s150-67.2,150-150S315.3,78.4,232.4,78.4z
			 M232.4,329.4c-55.8,0-101-45.2-101-101s45.2-101,101-101s101,45.2,101,101S288.2,329.4,232.4,329.4z"></path>
		<path class="st0" d="M269.4,212.4L269.4,212.4c11.6,0,21,9.4,21,21v17c0,11.6-9.4,21-21,21l0,0c-11.6,0-21-9.4-21-21v-17
			C248.4,221.8,257.8,212.4,269.4,212.4z"></path>
		<path class="st0" d="M194.4,185.4L194.4,185.4c11.6,0,21,9.4,21,21v44c0,11.6-9.4,21-21,21l0,0c-11.6,0-21-9.4-21-21v-44
			C173.4,194.8,182.8,185.4,194.4,185.4z"></path>
		<path class="st0" d="M10.5,292.9c-12.7-14.6-10.8-36.8,4.2-48.9l0,0c18.7-15.1,46.8-6.6,53.9,16.4l27.1,87
			c2.2,7.1-1.2,14.7-7.9,17.8l0,0c-6,2.7-13,1.2-17.3-3.7L10.5,292.9z"></path>
		<path class="st0" d="M454.8,292.9c12.7-14.6,10.8-36.8-4.2-48.9l0,0c-18.7-15.1-46.8-6.6-53.9,16.4l-27.1,87
			c-2.2,7.1,1.2,14.7,7.9,17.8l0,0c6,2.7,13,1.2,17.3-3.7L454.8,292.9z"></path>
	</g>
</g>
</svg>
