<svg width="528" height="528" fill="none" xmlns="http://www.w3.org/2000/svg"><g clip-path="url('#clip0_477_214')"><path fill-rule="evenodd" clip-rule="evenodd" d="M279.645 101.376c-87.482 0-158.4 70.918-158.4 158.4s70.918 158.4 158.4 158.4 158.4-70.918 158.4-158.4-70.918-158.4-158.4-158.4Zm-.001 51.744c-58.905 0-106.656 47.751-106.656 106.656 0 58.904 47.751 106.656 106.656 106.656 58.904 0 106.656-47.752 106.656-106.656 0-58.905-47.752-106.656-106.656-106.656Z" fill="#303030"/><rect x="296.542" y="242.88" width="44.352" height="62.304" rx="22.176" fill="#303030"/><rect x="217.342" y="214.368" width="44.352" height="90.816" rx="22.176" fill="#303030"/><path d="M45.323 327.864c-13.44-15.367-11.411-38.826 4.466-51.66 19.768-15.978 49.421-6.974 56.967 17.298l28.577 91.912c2.325 7.48-1.255 15.525-8.368 18.804a15.603 15.603 0 0 1-18.279-3.899l-63.363-72.455ZM514.419 327.864c13.439-15.367 11.411-38.826-4.467-51.66-19.767-15.978-49.421-6.974-56.967 17.298l-28.576 91.912c-2.325 7.48 1.255 15.525 8.368 18.804a15.603 15.603 0 0 0 18.279-3.899l63.363-72.455Z" fill="#303030"/><g clip-path="url('#clip1_477_214')" fill="#A6A6A6"><path fill-rule="evenodd" clip-rule="evenodd" d="M268.356 93.11c-87.482 0-158.4 70.917-158.4 158.399s70.918 158.4 158.4 158.4 158.4-70.918 158.4-158.4-70.918-158.4-158.4-158.4Zm-.001 51.743c-58.905 0-106.656 47.752-106.656 106.656 0 58.905 47.751 106.656 106.656 106.656 58.904 0 106.656-47.751 106.656-106.656 0-58.904-47.752-106.656-106.656-106.656Z"/><rect x="285.254" y="234.613" width="44.352" height="62.304" rx="22.176"/><rect x="206.053" y="206.101" width="44.352" height="90.816" rx="22.176"/><path d="M34.034 319.598c-13.44-15.368-11.412-38.827 4.466-51.661 19.767-15.977 49.42-6.973 56.967 17.298l28.576 91.913a15.603 15.603 0 0 1-8.368 18.803 15.604 15.604 0 0 1-18.279-3.898l-63.362-72.455ZM503.129 319.598c13.44-15.368 11.412-38.827-4.466-51.661-19.767-15.977-49.421-6.973-56.967 17.298l-28.576 91.913a15.605 15.605 0 0 0 8.368 18.803 15.604 15.604 0 0 0 18.279-3.898l63.362-72.455Z"/></g></g><defs><clipPath id="clip0_477_214"><path fill="#fff" d="M0 0h528v528H0z"/></clipPath><clipPath id="clip1_477_214"><path fill="#fff" transform="translate(24 -8)" d="M0 0h504v528H0z"/></clipPath></defs></svg>