<svg width="528" height="528" viewBox="0 0 528 528" fill="none" xmlns="http://www.w3.org/2000/svg">
<g clip-path="url('#clip0_477_214')">
<path fill-rule="evenodd" clip-rule="evenodd" d="M279.645 101.376C192.163 101.376 121.245 172.294 121.245 259.776C121.245 347.258 192.163 418.176 279.645 418.176C367.127 418.176 438.045 347.258 438.045 259.776C438.045 172.294 367.127 101.376 279.645 101.376ZM279.644 153.12C220.739 153.12 172.988 200.871 172.988 259.776C172.988 318.68 220.739 366.432 279.644 366.432C338.548 366.432 386.3 318.68 386.3 259.776C386.3 200.871 338.548 153.12 279.644 153.12Z" fill="#303030"></path>
<rect x="296.542" y="242.88" width="44.352" height="62.304" rx="22.176" fill="#303030"></rect>
<rect x="217.342" y="214.368" width="44.352" height="90.816" rx="22.176" fill="#303030"></rect>
<path d="M45.3232 327.864C31.8838 312.497 33.9119 289.038 49.7893 276.204V276.204C69.5571 260.226 99.2102 269.23 106.756 293.502L135.333 385.414C137.658 392.894 134.078 400.939 126.965 404.218V404.218C120.681 407.115 113.24 405.528 108.686 400.319L45.3232 327.864Z" fill="#303030"></path>
<path d="M514.419 327.864C527.858 312.497 525.83 289.038 509.952 276.204V276.204C490.185 260.226 460.531 269.23 452.985 293.502L424.409 385.414C422.084 392.894 425.664 400.939 432.777 404.218V404.218C439.061 407.115 446.501 405.528 451.056 400.319L514.419 327.864Z" fill="#303030"></path>
<g clip-path="url('#clip1_477_214')">
<path fill-rule="evenodd" clip-rule="evenodd" d="M268.356 93.1092C180.874 93.1092 109.956 164.027 109.956 251.509C109.956 338.991 180.874 409.909 268.356 409.909C355.838 409.909 426.756 338.991 426.756 251.509C426.756 164.027 355.838 93.1092 268.356 93.1092ZM268.355 144.853C209.45 144.853 161.699 192.605 161.699 251.509C161.699 310.414 209.45 358.165 268.355 358.165C327.259 358.165 375.011 310.414 375.011 251.509C375.011 192.605 327.259 144.853 268.355 144.853Z" fill="#A6A6A6"></path>
<rect x="285.254" y="234.613" width="44.352" height="62.304" rx="22.176" fill="#A6A6A6"></rect>
<rect x="206.053" y="206.101" width="44.352" height="90.816" rx="22.176" fill="#A6A6A6"></rect>
<path d="M34.0336 319.598C20.5942 304.23 22.6223 280.771 38.4998 267.937V267.937C58.2675 251.96 87.9207 260.964 95.4669 285.235L124.043 377.148C126.369 384.627 122.789 392.672 115.675 395.951V395.951C109.392 398.848 101.951 397.261 97.3961 392.053L34.0336 319.598Z" fill="#A6A6A6"></path>
<path d="M503.129 319.598C516.569 304.23 514.541 280.771 498.663 267.937V267.937C478.896 251.96 449.242 260.964 441.696 285.235L413.12 377.148C410.795 384.627 414.375 392.672 421.488 395.951V395.951C427.772 398.848 435.212 397.261 439.767 392.053L503.129 319.598Z" fill="#A6A6A6"></path>
</g>
</g>
<defs>
<clipPath id="clip0_477_214">
<rect width="528" height="528" fill="white"></rect>
</clipPath>
<clipPath id="clip1_477_214">
<rect width="504" height="528" fill="white" transform="translate(24 -8)"></rect>
</clipPath>
</defs>
</svg>
