{
	"asset":{
		"version":"2.0",
		"generator":"Created using the official Cinema 4D glTF Exporter 1.000x284978"
	},
	"scenes":[{
		"nodes":[0]
	}],
	"materials":[{
		"pbrMetallicRoughness":{
			"baseColorFactor":[0.6900000000000001,
			0.66102,
			0.6072,
			1.0],
			"metallicFactor":1.0,
			"roughnessFactor":1.0
		},
		"emissiveFactor":[0.47000000000000005,
		0.45354999999999998,
		0.42300000000000007],
		"alphaMode":"OPAQUE",
		"doubleSided":false,
		"name":"brownish_white"
	},
	{
		"pbrMetallicRoughness":{
			"baseColorFactor":[0.43499999999999996,
			0.39998249999999987,
			0.33494999999999999,
			1.0],
			"metallicFactor":1.0,
			"roughnessFactor":1.0
		},
		"emissiveFactor":[0.29,
		0.26969999999999996,
		0.23199999999999999],
		"alphaMode":"OPAQUE",
		"doubleSided":false,
		"name":"brownish_gray"
	}],
	"nodes":[{
		"name":"Hare",
		"translation":[-271.7322998046875,
		44.011688232421878,
		-226.2948455810547],
		"rotation":[0.0,
		-1.0,
		0.0,
		-6.123234262925839e-17],
		"scale":[1.0,
		1.0,
		1.0],
		"children":[1,
		2]
	},
	{
		"name":"Hare-brownish_white",
		"mesh":0
	},
	{
		"name":"Hare-brownish_gray",
		"mesh":1
	}],
	"meshes":[{
		"name":"Hare-brownish_white",
		"primitives":[{
			"attributes":{
				"POSITION":1,
				"TEXCOORD_0":2
			},
			"indices":0,
			"material":0
		}]
	},
	{
		"name":"Hare-brownish_gray",
		"primitives":[{
			"attributes":{
				"POSITION":4,
				"TEXCOORD_0":5
			},
			"indices":3,
			"material":1
		}]
	}],
	"accessors":[{
		"componentType":5123,
		"bufferView":0,
		"type":"SCALAR",
		"count":2790,
		"byteOffset":0,
		"min":[0],
		"max":[880]
	},
	{
		"componentType":5126,
		"bufferView":1,
		"type":"VEC3",
		"count":881,
		"byteOffset":0,
		"min":[-197.5055389404297,
		-48.1839485168457,
		-243.0841064453125],
		"max":[119.05068969726563,
		381.7369689941406,
		294.5347900390625]
	},
	{
		"componentType":5126,
		"bufferView":1,
		"type":"VEC2",
		"count":881,
		"byteOffset":12,
		"min":[0.0,
		0.0],
		"max":[1.0,
		1.0]
	},
	{
		"componentType":5123,
		"bufferView":2,
		"type":"SCALAR",
		"count":54,
		"byteOffset":0,
		"min":[0],
		"max":[23]
	},
	{
		"componentType":5126,
		"bufferView":3,
		"type":"VEC3",
		"count":24,
		"byteOffset":0,
		"min":[-79.5918197631836,
		158.30079650878907,
		-243.0841064453125],
		"max":[1.1369680166244507,
		370.6146240234375,
		-54.810665130615237]
	},
	{
		"componentType":5126,
		"bufferView":3,
		"type":"VEC2",
		"count":24,
		"byteOffset":12,
		"min":[0.0,
		0.0],
		"max":[1.0,
		0.22647017240524293]
	}],
	"bufferViews":[{
		"buffer":0,
		"byteOffset":0,
		"byteLength":5580,
		"target":34963
	},
	{
		"buffer":0,
		"byteOffset":5580,
		"byteLength":17620,
		"target":34962,
		"byteStride":20
	},
	{
		"buffer":1,
		"byteOffset":0,
		"byteLength":108,
		"target":34963
	},
	{
		"buffer":1,
		"byteOffset":108,
		"byteLength":480,
		"target":34962,
		"byteStride":20
	}],
	"buffers":[{
		"uri":"data:application/octet-stream;base64,",
		"byteLength":23200
	},
	{
		"uri":"data:application/octet-stream;base64,",
		"byteLength":588
	}]
}